<?xml version="1.0" standalone="no"?>
<!DOCTYPE svg PUBLIC "-//W3C//DTD SVG 20010904//EN"
 "http://www.w3.org/TR/2001/REC-SVG-20010904/DTD/svg10.dtd">
<svg version="1.0" xmlns="http://www.w3.org/2000/svg"
 width="322.000000pt" height="322.000000pt" viewBox="0 0 322.000000 322.000000"
 preserveAspectRatio="xMidYMid meet">
<metadata>
Created by potrace 1.14, written by Peter Selinger 2001-2017
</metadata>
<g transform="translate(0.000000,322.000000) scale(0.100000,-0.100000)"
fill="#000000" stroke="none">
<path d="M670 3205 c0 -5 5 -37 10 -70 5 -33 10 -100 11 -150 1 -77 -2 -95
-21 -128 -13 -21 -26 -55 -31 -75 -4 -21 -11 -47 -14 -59 -6 -17 -3 -23 8 -23
14 0 14 -3 1 -27 -15 -30 -20 -209 -6 -228 4 -5 50 -10 102 -10 102 -1 142
-14 208 -70 16 -14 34 -25 40 -25 12 0 25 69 24 119 -2 61 -32 145 -60 169
-18 16 -23 25 -14 28 14 7 16 70 2 79 -5 3 -10 0 -10 -7 0 -10 -2 -10 -9 1 -5
7 -6 22 -3 34 5 18 6 19 18 3 6 -10 14 -14 17 -9 3 5 -1 16 -8 26 -10 13 -20
16 -40 11 -17 -4 -26 -3 -22 3 3 5 -3 18 -15 27 -19 17 -21 17 -14 1 5 -13 2
-16 -10 -11 -8 3 -24 6 -33 6 -29 0 -65 37 -56 57 6 16 8 16 16 -4 4 -13 11
-23 14 -23 8 0 -2 51 -20 105 -7 22 -17 63 -23 90 -6 28 -13 63 -17 78 -3 17
-2 26 4 23 5 -3 7 3 4 15 -6 22 -18 15 -26 -16 -3 -11 -5 0 -6 24 -1 38 1 42
14 31 13 -11 14 -10 9 3 -6 17 -44 19 -44 2z m74 -271 c4 -14 1 -26 -10 -35
-16 -13 -17 -11 -11 13 4 15 0 59 -8 98 -8 39 -14 81 -14 93 1 12 9 -16 19
-63 9 -47 20 -94 24 -106z m-14 -120 c-14 -37 -23 -24 -14 21 5 29 9 34 15 22
6 -9 5 -27 -1 -43z m189 -278 c-3 -3 -11 5 -18 17 -13 21 -12 21 5 5 10 -10
16 -20 13 -22z m55 -17 c-7 -11 -31 -1 -38 16 -4 11 0 12 19 3 13 -6 22 -15
19 -19z"/>
<path d="M1405 3211 c-3 -5 -1 -12 5 -16 5 -3 10 1 10 9 0 18 -6 21 -15 7z"/>
<path d="M1834 3204 c3 -9 6 -25 6 -37 0 -15 3 -18 8 -10 5 8 8 -3 8 -25 0
-20 2 -64 3 -97 6 -134 -61 -387 -110 -418 -11 -7 -19 -17 -19 -23 0 -6 -10
-19 -22 -28 l-23 -17 25 7 25 6 -22 -19 c-13 -11 -23 -27 -23 -36 0 -22 -21
-67 -32 -67 -12 0 -10 18 2 22 13 4 22 68 10 68 -16 0 -40 -102 -40 -172 0
-67 0 -68 -26 -68 l-27 0 9 -117 c4 -65 8 -184 8 -266 1 -136 5 -163 21 -137
3 6 30 10 59 10 60 0 113 -31 162 -95 33 -44 74 -188 74 -262 0 -70 44 -191
82 -221 36 -30 38 -79 5 -110 -31 -29 -56 -28 -112 6 -39 23 -52 40 -90 117
-40 82 -84 228 -100 338 -11 70 -41 37 -87 -93 -31 -90 -40 -139 -47 -249 l-6
-104 -52 -18 -51 -17 -42 36 -42 36 6 70 c9 102 16 235 10 209 -3 -13 -10 -23
-16 -23 -6 0 -8 9 -5 20 3 10 0 21 -5 22 -5 2 -8 19 -6 38 l3 35 16 -34 17
-34 10 54 c6 30 13 102 17 162 5 92 3 107 -10 107 -8 0 -15 7 -15 15 0 18 17
20 23 3 4 -12 17 95 16 137 -1 39 -11 77 -19 68 -4 -4 -18 -39 -30 -78 -13
-38 -28 -73 -34 -77 -8 -6 -7 -11 4 -17 12 -8 12 -18 3 -58 -7 -26 -13 -93
-14 -148 -3 -149 -3 -163 -10 -159 -11 6 -40 -244 -40 -344 0 -113 -22 -286
-43 -337 -8 -19 -25 -72 -37 -118 -12 -45 -31 -100 -44 -122 -71 -128 -100
-173 -126 -201 -17 -18 -38 -56 -48 -92 -18 -59 -78 -148 -135 -201 -14 -14
-26 -28 -26 -33 0 -4 45 -8 101 -8 l100 0 71 63 c82 73 71 61 156 163 37 45
94 112 127 150 73 84 185 297 210 399 22 89 43 126 64 115 9 -5 23 -11 31 -13
8 -2 23 -26 33 -53 23 -66 86 -438 92 -549 3 -50 7 -117 10 -150 2 -33 4 -75
4 -92 l1 -33 205 0 c204 0 205 0 210 23 13 59 88 438 111 562 20 109 25 170
25 278 -1 76 3 263 9 415 9 264 9 281 -11 362 -22 91 -49 272 -49 330 0 20 -9
54 -21 75 -33 64 -39 92 -49 233 -8 114 -13 143 -39 200 -16 37 -32 80 -36 95
-4 20 -10 27 -21 23 -11 -4 -12 -2 -4 14 12 23 13 33 1 25 -5 -3 -12 -1 -16 5
-4 6 -19 5 -42 -5 -41 -17 -53 -13 -53 21 0 13 -5 24 -11 24 -7 0 -9 -9 -5
-23 5 -22 3 -23 -27 -20 -17 2 -45 4 -62 4 -16 0 -33 5 -37 12 -10 15 -9 190
1 197 4 3 1 55 -6 115 -12 101 -18 156 -21 228 -2 22 -7 27 -28 27 -20 0 -25
-4 -20 -16z m60 -564 c-6 -5 -24 21 -24 34 0 6 6 1 14 -10 8 -10 12 -21 10
-24z m156 -64 c0 -3 -4 -8 -10 -11 -5 -3 -10 -1 -10 4 0 6 5 11 10 11 6 0 10
-2 10 -4z m-269 -67 l21 -31 -28 4 c-23 2 -30 9 -32 31 -4 36 11 34 39 -4z
m143 -14 c-10 -16 -20 -23 -22 -16 -4 12 28 55 35 47 3 -2 -3 -17 -13 -31z
m96 -36 c29 -43 39 -64 31 -72 -7 -7 -16 -6 -29 6 -10 9 -27 14 -39 11 -20 -5
-21 -2 -19 55 0 33 4 61 8 61 3 0 25 -28 48 -61z m-210 -10 c0 -14 -17 -10
-23 5 -4 10 -1 13 9 9 7 -3 14 -9 14 -14z m180 -69 c-8 -5 -19 -10 -25 -10 -5
0 -3 5 5 10 8 5 20 10 25 10 6 0 3 -5 -5 -10z m117 -95 c3 -48 15 -95 23 -95
11 0 34 -69 26 -77 -3 -4 -6 -2 -6 4 0 5 -22 29 -50 52 -48 40 -67 50 -34 17
8 -9 11 -16 5 -16 -22 0 -10 -27 24 -59 19 -17 35 -35 35 -39 0 -4 -18 -8 -40
-9 -22 -2 -40 2 -40 7 0 6 8 11 18 11 14 1 14 2 1 6 -9 2 -26 26 -39 53 -13
28 -27 50 -32 50 -4 0 -8 5 -8 12 0 6 3 8 7 5 13 -13 33 16 33 49 0 60 73 88
77 29z m-162 -83 c-3 -3 -11 0 -18 7 -9 10 -8 11 6 5 10 -3 15 -9 12 -12z
m295 -143 c0 -6 -4 -7 -10 -4 -5 3 -10 11 -10 16 0 6 5 7 10 4 6 -3 10 -11 10
-16z m-94 -66 c7 -27 30 -52 47 -53 5 0 5 5 2 10 -3 6 -2 10 4 10 5 0 9 -9 8
-20 -1 -11 -5 -20 -10 -20 -4 0 -5 -5 -2 -10 16 -26 -7 -49 -60 -60 -53 -11
-56 -10 -100 20 -50 34 -57 50 -22 50 13 1 39 19 67 50 25 27 48 50 52 50 4 0
11 -12 14 -27z m170 -51 c2 -19 0 -22 -9 -13 -6 6 -12 26 -13 43 -2 27 0 29 9
13 5 -10 11 -30 13 -43z m-20 -37 c7 -19 14 -47 14 -62 l-1 -28 -13 25 c-15
28 -30 100 -21 100 3 0 13 -16 21 -35z m-36 -226 c0 -6 -5 -20 -12 -32 -16
-29 -16 -105 -1 -111 7 -3 15 4 19 16 5 17 12 19 43 14 20 -3 44 -6 54 -6 9 0
17 -7 17 -16 0 -10 -6 -14 -15 -10 -11 4 -15 -2 -15 -20 0 -27 -10 -27 -92 2
-28 10 -38 10 -41 1 -3 -9 -9 -8 -22 3 -11 9 -16 10 -11 3 5 -9 1 -13 -13 -13
-11 0 -23 5 -26 10 -4 6 -11 8 -16 5 -21 -14 -7 15 26 51 19 21 35 42 35 47 0
5 10 22 23 37 22 29 47 39 47 19z m-903 -359 c-5 -31 -17 -36 -17 -7 0 15 4
27 10 27 5 0 9 -9 7 -20z m863 -40 c29 -15 41 -45 31 -72 -8 -20 -10 -21 -16
-5 -4 9 -12 17 -19 17 -14 0 -56 44 -56 59 0 14 35 14 60 1z m50 -120 c30 -26
52 -52 48 -56 -4 -4 -28 -1 -52 6 -36 10 -47 18 -55 43 -13 35 -14 57 -3 57 4
0 32 -23 62 -50z m-589 -22 c-13 -34 -37 -46 -57 -26 -25 25 -11 48 30 48 32
0 35 -2 27 -22z m239 -247 c0 -11 -39 -21 -45 -11 -2 4 -2 10 2 14 10 9 43 7
43 -3z m-362 -24 c13 -15 26 -67 18 -67 -4 0 -20 7 -36 15 -21 11 -30 23 -30
40 0 28 29 35 48 12z m718 -42 c46 -2 64 -10 64 -30 0 -35 -121 -29 -151 8
-22 28 -14 41 20 31 14 -4 44 -8 67 -9z m-194 -29 c10 -4 20 -16 23 -25 3 -10
14 -27 25 -38 10 -12 22 -33 26 -47 l6 -26 -36 15 c-19 8 -45 15 -56 15 -16 0
-20 6 -20 33 0 21 -7 36 -20 44 -16 10 -18 10 -14 -1 3 -7 -2 -16 -11 -19 -11
-5 -14 -14 -9 -33 5 -19 4 -25 -5 -20 -6 4 -11 18 -11 31 0 12 -7 25 -15 29
-17 6 -20 27 -4 43 11 11 95 11 121 -1z m-123 -96 c4 0 8 -7 8 -15 0 -18 -18
-20 -35 -3 -17 17 -15 31 4 24 9 -3 19 -6 23 -6z m-592 -172 c-3 -7 -5 -2 -5
12 0 14 2 19 5 13 2 -7 2 -19 0 -25z m930 -120 c-3 -8 -6 -5 -6 6 -1 11 2 17
5 13 3 -3 4 -12 1 -19z m-1183 -213 c-4 -8 -12 -15 -20 -15 -17 0 -18 17 -1
23 22 9 27 7 21 -8z"/>
<path d="M2309 1519 c13 -11 26 -17 29 -14 8 8 -20 35 -37 35 -12 -1 -11 -5 8
-21z"/>
<path d="M1943 3168 c4 -12 7 -35 7 -49 0 -24 66 -122 140 -209 19 -22 21 -22
17 -5 -3 11 -8 29 -12 40 -8 26 89 -79 107 -114 7 -14 40 -71 73 -126 66 -109
66 -110 50 -295 -5 -53 -1 -81 20 -150 56 -183 96 -310 131 -415 19 -60 59
-181 87 -267 28 -87 55 -158 59 -158 5 0 25 -12 44 -27 29 -24 34 -34 34 -68
0 -46 -34 -125 -74 -172 -20 -24 -37 -33 -75 -38 -88 -12 -31 -55 73 -55 57 0
69 -6 80 -35 11 -31 34 -169 47 -290 18 -171 59 -314 76 -267 10 28 23 9 23
-35 0 -57 31 -198 57 -269 11 -28 39 -76 63 -107 l42 -57 65 0 c58 0 64 2 58
18 -9 21 -27 149 -26 179 1 40 -18 34 -39 -11 -11 -25 -20 -67 -21 -93 0 -42
-1 -45 -10 -23 -8 18 -6 42 7 90 17 69 33 99 69 140 12 14 25 41 29 60 4 25 3
31 -4 20 -8 -13 -10 -13 -10 2 0 9 5 20 10 23 6 3 10 36 10 73 1 37 7 94 15
127 17 71 20 169 4 160 -7 -5 -9 14 -7 57 2 44 7 62 16 60 22 -4 13 70 -16
133 -31 65 -42 110 -47 193 -2 29 -15 78 -29 108 -14 31 -26 66 -26 78 0 34
-11 66 -21 60 -5 -2 -8 12 -7 32 l1 37 24 -46 c12 -25 26 -69 29 -98 6 -49 29
-119 39 -119 2 0 -2 21 -10 48 -8 26 -15 48 -15 49 0 1 6 0 13 -3 11 -4 11 14
0 103 -18 155 -46 221 -132 310 -53 54 -66 74 -57 82 9 7 16 7 25 -2 10 -9 11
-8 6 8 -3 11 5 -2 19 -30 26 -54 81 -125 69 -90 -3 11 -10 22 -13 25 -14 10
-61 125 -76 184 -8 34 -35 102 -60 153 -24 51 -44 99 -44 107 0 19 -20 32 -21
14 -1 -7 -4 2 -8 19 l-6 33 -32 -31 c-18 -16 -33 -25 -33 -20 0 6 11 18 25 27
14 9 25 24 25 33 0 42 -35 113 -77 158 -61 65 -86 101 -87 127 -1 17 -7 20
-31 18 -16 -2 -42 -13 -58 -24 -23 -17 -33 -19 -53 -9 -13 6 -24 15 -24 20 0
6 -7 8 -15 5 -10 -4 -13 -13 -10 -25 10 -30 0 -23 -29 21 -24 36 -25 41 -10
47 10 4 31 -1 47 -11 16 -9 32 -15 34 -12 7 7 -49 46 -58 40 -5 -3 -9 0 -9 7
0 7 -10 9 -25 7 -22 -5 -31 5 -87 96 -83 136 -96 154 -217 284 -59 64 -105
123 -106 135 -1 15 -9 23 -25 25 -20 3 -22 0 -17 -20z m602 -648 c3 -5 1 -10
-4 -10 -6 0 -11 5 -11 10 0 6 2 10 4 10 3 0 8 -4 11 -10z m57 -21 c-18 -17
-31 -34 -27 -37 3 -3 14 4 25 16 26 28 45 29 31 3 -8 -14 -7 -22 6 -32 14 -13
12 -15 -18 -19 -29 -4 -89 13 -89 25 0 8 46 52 65 63 37 21 40 12 7 -19z
m-134 -10 c-3 -8 -7 -3 -11 10 -4 17 -3 21 5 13 5 -5 8 -16 6 -23z m276 -195
c7 -19 -12 -57 -25 -49 -5 4 -9 22 -9 40 0 26 4 33 14 29 8 -3 17 -12 20 -20z
m-102 -111 c6 -16 11 -46 12 -67 1 -40 26 -66 26 -27 0 29 19 36 24 9 2 -13 9
-45 14 -73 13 -62 0 -82 -29 -45 -11 14 -22 37 -25 53 -4 15 -10 27 -15 27
-11 0 -22 39 -23 85 -1 22 -5 46 -9 53 -5 7 -4 12 3 12 6 0 16 -12 22 -27z
m201 -36 c3 -22 2 -35 -4 -32 -5 4 -9 22 -9 42 0 45 5 40 13 -10z m-293 19 c0
3 7 1 15 -6 11 -9 12 -16 5 -25 -6 -7 -7 -21 -4 -31 4 -11 -7 -1 -24 21 -37
47 -40 60 -12 45 11 -6 20 -8 20 -4z m317 -164 c17 -26 29 -49 26 -52 -3 -3
-8 1 -10 8 -3 6 -10 9 -15 6 -6 -4 -8 -2 -5 4 4 5 -8 22 -25 37 -32 26 -57 61
-58 78 0 17 56 -36 87 -81z m48 -10 c-5 -5 -31 46 -39 78 -4 14 4 3 18 -25 14
-27 23 -51 21 -53z m13 -64 c-3 -21 -4 -21 -18 -3 -9 11 -10 16 -2 11 8 -5 12
1 13 21 1 17 3 21 6 11 2 -10 3 -28 1 -40z m-4 -132 c-3 -8 -13 -12 -25 -9
-16 5 -18 8 -7 14 20 13 38 11 32 -5z m86 -191 c0 -5 -5 -3 -10 5 -5 8 -10 20
-10 25 0 6 5 3 10 -5 5 -8 10 -19 10 -25z m-46 -488 c-25 -14 -60 28 -42 50
11 13 16 11 36 -13 22 -25 23 -28 6 -37z m203 -179 c-3 -8 -6 -5 -6 6 -1 11 2
17 5 13 3 -3 4 -12 1 -19z m-77 -54 c0 -3 -7 -12 -15 -20 -16 -17 -18 -14 -9
10 6 15 24 23 24 10z m-118 -36 c-9 -9 -12 -7 -12 12 0 19 3 21 12 12 9 -9 9
-15 0 -24z m-145 -15 c44 -121 53 -163 53 -238 0 -121 -15 -120 -28 2 -6 60
-17 124 -25 143 -20 47 -31 120 -19 120 5 0 14 -12 19 -27z m263 -58 c0 -11 9
-35 21 -54 17 -28 19 -39 10 -58 -6 -12 -15 -23 -21 -23 -5 0 -10 -10 -10 -23
0 -21 -16 -47 -30 -47 -3 0 -6 54 -7 120 0 69 3 118 8 114 5 -3 9 1 9 8 0 22
20 -14 20 -37z m-159 -96 c-9 -23 -10 -22 -10 11 -1 23 2 31 9 24 7 -7 7 -19
1 -35z m9 -264 c0 -8 -2 -15 -4 -15 -2 0 -6 7 -10 15 -3 8 -1 15 4 15 6 0 10
-7 10 -15z m35 -130 c5 -22 8 -43 7 -47 -1 -5 5 -8 14 -8 9 0 13 -5 10 -12 -3
-7 -9 -21 -12 -30 -4 -10 -10 -18 -14 -18 -26 0 -68 86 -56 115 3 8 1 15 -4
15 -6 0 -10 7 -10 15 0 8 4 15 9 15 5 0 13 10 17 22 l7 22 12 -25 c7 -13 16
-42 20 -64z m145 -260 c0 -5 -5 -3 -10 5 -5 8 -10 20 -10 25 0 6 5 3 10 -5 5
-8 10 -19 10 -25z"/>
<path d="M1418 3089 c5 -33 14 -36 33 -12 12 15 12 16 -3 10 -12 -4 -18 -2
-18 8 0 7 -4 16 -8 19 -5 3 -6 -8 -4 -25z"/>
<path d="M1927 3025 c3 -33 10 -68 15 -78 5 -9 8 -23 7 -30 -4 -20 33 -137 43
-137 6 0 7 -8 3 -17 -5 -14 -4 -15 6 -6 9 9 7 23 -8 60 -11 26 -28 84 -38 128
-28 128 -35 148 -28 80z"/>
<path d="M2127 3015 c10 -13 25 -27 33 -30 8 -4 2 8 -14 24 -36 37 -43 40 -19
6z"/>
<path d="M1401 3004 c0 -11 3 -14 6 -6 3 7 2 16 -1 19 -3 4 -6 -2 -5 -13z"/>
<path d="M1431 2968 c-1 -31 4 -60 9 -63 12 -7 12 58 0 95 -6 19 -8 12 -9 -32z"/>
<path d="M777 2953 c-7 -12 11 -53 23 -53 14 0 12 16 -5 33 -8 8 -11 17 -8 21
4 3 4 6 0 6 -3 0 -8 -3 -10 -7z"/>
<path d="M1412 2930 c0 -14 2 -19 5 -12 2 6 2 18 0 25 -3 6 -5 1 -5 -13z"/>
<path d="M1430 2844 c0 -14 4 -23 10 -19 6 3 10 15 10 26 0 10 -4 19 -10 19
-5 0 -10 -12 -10 -26z"/>
<path d="M2280 2823 c12 -24 26 -40 32 -37 5 3 -1 18 -14 33 -12 14 -27 31
-31 36 -5 6 1 -9 13 -32z"/>
<path d="M1471 2834 c0 -11 3 -14 6 -6 3 7 2 16 -1 19 -3 4 -6 -2 -5 -13z"/>
<path d="M1439 2775 c-1 -16 -3 -38 -3 -47 0 -9 -3 -15 -8 -12 -4 3 -8 -2 -8
-10 0 -8 5 -18 10 -21 6 -3 10 -31 10 -61 0 -30 4 -54 9 -54 5 0 7 48 4 108
-5 113 -10 147 -14 97z"/>
<path d="M1930 2747 c0 -8 7 -17 15 -21 9 -3 12 -12 9 -23 -5 -14 -4 -15 4 -4
11 16 1 53 -16 59 -7 2 -12 -3 -12 -11z"/>
<path d="M2007 2736 c-4 -10 -1 -24 9 -33 21 -21 24 -14 10 22 -10 25 -13 27
-19 11z"/>
<path d="M1921 2691 c-1 -24 2 -32 9 -25 7 7 7 19 1 35 -9 23 -10 22 -10 -10z"/>
<path d="M2395 2700 c8 -13 65 -43 71 -37 5 4 -61 47 -72 47 -3 0 -2 -5 1 -10z"/>
<path d="M1295 2642 c-49 -175 -74 -249 -122 -356 -29 -66 -56 -123 -61 -128
-6 -6 -18 4 -30 24 l-22 33 0 -61 c0 -52 -7 -75 -50 -163 -56 -115 -111 -196
-195 -289 -49 -54 -73 -70 -166 -114 l-109 -51 0 -116 c0 -64 5 -134 10 -155
5 -21 6 -70 3 -108 -6 -63 -8 -71 -32 -80 -46 -18 -73 -12 -103 21 -24 26 -28
40 -28 87 0 47 -2 55 -14 45 -8 -7 -21 -26 -29 -44 -22 -45 -204 -254 -282
-323 l-65 -58 0 -293 c0 -161 2 -293 4 -293 26 0 232 116 296 168 50 40 194
182 184 182 -11 0 89 95 186 177 79 67 103 94 139 159 24 44 55 98 68 122 14
24 53 73 87 110 63 67 76 92 106 211 8 29 25 57 48 79 21 19 30 33 22 30 -8
-3 -26 -1 -40 4 -18 7 -21 11 -11 17 19 12 3 33 -20 26 -24 -8 -39 23 -18 36
21 13 23 12 55 -31 16 -22 34 -40 40 -40 6 0 17 30 23 68 14 77 19 104 20 115
1 5 6 5 11 2 6 -4 10 8 10 30 0 22 6 38 15 41 13 5 13 8 0 21 -10 9 -15 35
-15 74 0 63 -1 65 -31 48 -18 -9 -19 -7 -13 16 5 20 3 24 -10 19 -9 -3 -16 -2
-16 3 0 5 11 10 25 11 14 1 25 -3 25 -8 0 -6 3 -10 8 -10 4 0 7 30 7 68 1 55
11 97 58 232 31 91 68 206 81 255 14 50 37 119 51 153 15 35 24 67 21 70 -4 3
-17 7 -29 9 -12 1 -34 5 -49 7 -25 5 -28 2 -43 -52z m-230 -820 c-3 -3 -11 0
-18 7 -9 10 -8 11 6 5 10 -3 15 -9 12 -12z m75 -33 c0 -5 -7 -9 -15 -9 -8 0
-15 7 -15 15 0 9 6 12 15 9 8 -4 15 -10 15 -15z m-73 -21 c-2 -12 -10 -24 -17
-26 -7 -3 -10 0 -6 6 3 6 0 13 -6 15 -10 4 -9 8 2 16 23 16 30 13 27 -11z m55
-20 c-2 -10 -11 -18 -20 -18 -8 0 -13 3 -9 6 3 3 2 16 -3 29 -8 21 -7 22 14
12 15 -7 21 -17 18 -29z m-127 -238 c8 -13 -5 -13 -25 0 -13 8 -13 10 2 10 9
0 20 -4 23 -10z m60 -100 c-3 -5 -11 -10 -16 -10 -6 0 -7 5 -4 10 3 6 11 10
16 10 6 0 7 -4 4 -10z m-130 -180 c-3 -5 -10 -10 -16 -10 -5 0 -9 5 -9 10 0 6
7 10 16 10 8 0 12 -4 9 -10z m-125 -230 c0 -5 -12 -10 -27 -10 -22 0 -25 2
-13 10 20 13 40 13 40 0z m-378 -58 c13 -11 15 -19 8 -28 -8 -8 -7 -13 2 -16
15 -5 -72 -58 -96 -58 -14 0 -15 4 -6 20 6 11 8 26 4 32 -4 7 -9 23 -10 36 -5
41 57 50 98 14z m-134 -11 c9 -5 11 -17 6 -34 -7 -31 -24 -36 -24 -8 0 11 -4
23 -10 26 -5 3 -10 10 -10 16 0 11 20 12 38 0z"/>
<path d="M2500 2592 c0 -7 7 -20 15 -28 19 -20 20 -4 0 22 -9 12 -14 14 -15 6z"/>
<path d="M1444 2543 c2 -10 8 -51 11 -90 7 -69 15 -87 31 -62 3 6 2 14 -4 18
-5 3 -10 29 -9 56 0 28 -3 60 -7 73 -9 26 -30 30 -22 5z"/>
<path d="M444 2443 l-31 -4 -6 -442 c-10 -644 -9 -832 5 -861 19 -43 53 -59
94 -46 l34 12 -6 223 -7 224 114 54 c108 51 118 58 179 131 135 160 211 302
218 407 4 61 2 69 -31 121 -70 108 -157 158 -278 158 -42 0 -90 -5 -107 -11
-25 -9 -38 -6 -81 15 -28 14 -54 25 -58 24 -4 0 -22 -3 -39 -5z m439 -195 c34
-39 37 -47 33 -85 -10 -75 -85 -204 -197 -334 -62 -71 -119 -109 -164 -109
l-26 0 5 103 c3 56 9 159 12 228 7 150 17 173 96 219 50 29 58 31 128 26 73
-5 76 -6 113 -48z"/>
<path d="M683 2273 c-26 -9 -58 -32 -81 -58 -38 -43 -39 -48 -45 -136 -4 -51
-7 -147 -7 -214 0 -141 6 -150 67 -106 105 76 262 301 286 411 5 19 -2 34 -29
63 -29 32 -45 40 -92 48 -31 5 -57 9 -57 8 0 0 -19 -7 -42 -16z"/>
<path d="M1442 2405 c0 -16 2 -22 5 -12 2 9 2 23 0 30 -3 6 -5 -1 -5 -18z"/>
<path d="M1511 2384 c0 -11 3 -14 6 -6 3 7 2 16 -1 19 -3 4 -6 -2 -5 -13z"/>
<path d="M1425 2340 c-18 -20 -18 -24 -1 -115 21 -112 24 -411 6 -600 -7 -66
-16 -165 -20 -220 -5 -55 -12 -136 -16 -180 l-7 -81 36 -27 c33 -25 37 -26 74
-13 l38 13 7 97 c8 115 36 229 80 327 28 63 34 70 57 67 23 -3 26 -9 42 -100
34 -195 105 -356 174 -395 49 -28 77 -29 98 -5 25 28 21 50 -16 85 -41 39 -87
167 -87 242 0 72 -34 192 -67 239 -43 61 -86 86 -149 86 -29 0 -56 -4 -59 -10
-3 -5 -14 -10 -23 -10 -15 0 -17 17 -18 162 0 90 -4 219 -8 288 l-9 126 -33
22 c-42 27 -75 28 -99 2z"/>
<path d="M297 2047 c-48 -56 -99 -117 -113 -134 -14 -18 -28 -32 -32 -31 -14
4 -59 -26 -104 -70 l-48 -46 0 -308 c0 -170 4 -308 9 -308 5 0 14 7 21 15 7 8
17 15 22 15 15 0 235 178 303 244 l30 29 2 159 c2 139 0 158 -14 158 -15 0
-15 2 0 18 19 21 24 126 7 137 -6 4 -5 11 3 20 15 14 23 206 9 204 -4 0 -47
-46 -95 -102z m58 -87 c10 8 15 8 21 -1 4 -8 3 -9 -4 -5 -7 4 -12 2 -12 -3 0
-14 -27 -14 -35 -1 -3 6 -3 16 2 23 5 9 9 7 11 -6 3 -14 7 -15 17 -7z m-185
-100 c-33 -41 -42 -48 -37 -28 2 10 57 67 65 68 2 0 -11 -18 -28 -40z m-65
-40 c-10 -11 -21 -17 -24 -14 -3 3 3 12 13 20 28 20 32 17 11 -6z m126 4 c10
-13 8 -14 -14 -10 -15 2 -29 0 -32 -5 -4 -5 -10 -9 -16 -9 -5 0 -4 8 2 18 14
22 44 25 60 6z"/>
<path d="M2445 1348 c-29 -61 -29 -68 -13 -138 15 -65 50 -87 121 -76 40 6 49
13 81 59 19 29 41 74 48 100 13 49 13 49 -20 78 -30 27 -38 29 -113 29 l-80 0
-24 -52z"/>
<path d="M3141 1160 c0 -25 6 -58 14 -75 13 -29 13 -29 14 -5 0 14 -6 48 -14
75 l-14 50 0 -45z"/>
<path d="M3173 825 c0 -27 2 -38 4 -22 2 15 2 37 0 50 -2 12 -4 0 -4 -28z"/>
</g>
</svg>
